#N canvas 373 118 634 442 10;
#X obj 136 26 notein;
#X obj 136 413 dac~;
#X obj 134 252 mtof;
#X obj 188 260 / 127;
#X obj 135 85 pack 0 0 0;
#X obj 132 184 unpack 0 0;
#X obj 136 283 osc~;
#X obj 136 55 poly 4 1;
#X obj 136 110 route 1 2 3 4;
#X obj 235 188 unpack 0 0;
#X obj 331 194 unpack 0 0;
#X obj 445 195 unpack 0 0;
#X obj 232 258 mtof;
#X obj 286 266 / 127;
#X obj 234 289 osc~;
#X obj 340 263 mtof;
#X obj 394 271 / 127;
#X obj 345 325 *~;
#X obj 342 294 osc~;
#X obj 449 265 mtof;
#X obj 503 273 / 127;
#X obj 454 327 *~;
#X obj 451 296 osc~;
#X obj 139 346 *~;
#X obj 236 345 *~;
#X obj 138 387 *~ 0.5;
#X floatatom 246 27 5 0 0 0 - - -;
#X connect 0 0 7 0;
#X connect 0 1 7 1;
#X connect 2 0 6 0;
#X connect 3 0 23 1;
#X connect 4 0 8 0;
#X connect 5 0 2 0;
#X connect 5 1 3 0;
#X connect 6 0 23 0;
#X connect 7 0 4 0;
#X connect 7 1 4 1;
#X connect 7 2 4 2;
#X connect 8 0 5 0;
#X connect 8 1 9 0;
#X connect 8 2 10 0;
#X connect 8 3 11 0;
#X connect 9 0 12 0;
#X connect 9 1 13 0;
#X connect 10 0 15 0;
#X connect 10 1 16 0;
#X connect 11 0 19 0;
#X connect 11 1 20 0;
#X connect 12 0 14 0;
#X connect 13 0 24 1;
#X connect 14 0 24 0;
#X connect 15 0 18 0;
#X connect 16 0 17 1;
#X connect 18 0 17 0;
#X connect 19 0 22 0;
#X connect 20 0 21 1;
#X connect 22 0 21 0;
#X connect 23 0 25 0;
#X connect 24 0 25 0;
#X connect 25 0 1 0;
#X connect 25 0 1 1;
