#N canvas 515 43 790 565 10;
#X obj 121 287 vcf~ 1;
#X obj 120 382 dac~;
#X obj 120 346 *~;
#X obj 207 279 tgl 15 0 empty empty empty 17 7 0 10 -262144 -1 -1 0
1;
#X obj 210 128 vradio 10 1 0 10 empty empty empty 0 -8 0 10 -262144
-1 -1 3;
#X obj 136 249 +~;
#X obj 139 95 hsl 128 15 0 127 0 0 empty empty empty -2 -8 0 10 -262144
-1 -1 0 1;
#X obj 136 128 mtof~;
#X obj 152 175 osc~;
#X obj 152 219 *~;
#X floatatom 170 196 5 0 0 0 - - -, f 5;
#X floatatom 152 149 5 0 0 0 - - -, f 5;
#X obj 78 189 osc~;
#X obj 81 60 hsl 128 15 0 127 0 0 empty empty empty -2 -8 0 10 -262144
-1 -1 0 1;
#X obj 77 141 mtof~;
#X connect 0 0 2 0;
#X connect 2 0 1 0;
#X connect 2 0 1 1;
#X connect 3 0 2 1;
#X connect 4 0 0 2;
#X connect 5 0 0 1;
#X connect 6 0 7 0;
#X connect 7 0 5 0;
#X connect 8 0 9 0;
#X connect 9 0 5 1;
#X connect 10 0 9 1;
#X connect 11 0 8 0;
#X connect 12 0 0 0;
#X connect 13 0 14 0;
#X connect 14 0 12 0;
