#N canvas 252 110 825 356 10;
#X declare -lib mrpeach;
#X obj -547 -51 import mrpeach;
#X obj -492 147 udpsend;
#X msg -410 28 disconnect;
#X obj -492 115 packOSC;
#X text -564 1 SENDING;
#X text -109 -30 RECEIVING;
#X msg -560 28 connect 192.168.1.164 9000;
#X msg -551 66 send /vcs3sliders/osc1level 50;
#X msg -414 97;
#X msg -179 -17;
#X obj -107 -7 udpreceive 8000;
#X obj -68 67 unpackOSC;
#X obj -71 105 print unpacked;
#X obj -63 153 routeOSC /vcs3sliders;
#X obj -63 195 routeOSC /osc1level;
#X obj -80 245 print osc1level;
#X connect 2 0 1 0;
#X connect 3 0 1 0;
#X connect 6 0 1 0;
#X connect 7 0 3 0;
#X connect 10 0 11 0;
#X connect 11 0 12 0;
#X connect 11 0 13 0;
#X connect 13 0 14 0;
#X connect 14 0 15 0;
